<svg id="book" xmlns="http://www.w3.org/2000/svg" width="21.937" height="18.495" viewBox="0 0 21.937 18.495">
  <path id="Path_33" data-name="Path 33" d="M196.441,49.319V32.341l.7-.5a5.433,5.433,0,0,1,3.18-1.021h6.214a.859.859,0,0,1,.875.875V46.927a.859.859,0,0,1-.875.875h-6.214a5.433,5.433,0,0,0-3.18,1.021Z" transform="translate(-185.473 -30.824)" fill="#fff" opacity="0.4"/>
  <path id="Path_34" data-name="Path 34" d="M10.968,32.342V49.32l-.7-.5A5.433,5.433,0,0,0,7.089,47.8H.875A.859.859,0,0,1,0,46.928V31.7a.859.859,0,0,1,.875-.875H7.089a5.433,5.433,0,0,1,3.18,1.021Z" transform="translate(0 -30.825)" fill="#fff"/>
</svg>
