<svg id="eye" xmlns="http://www.w3.org/2000/svg" width="24.354" height="15.522" viewBox="0 0 24.354 15.522">
  <path id="Path_17" data-name="Path 17" d="M24.192,93.482a24.287,24.287,0,0,0-3.452-3.613C17.9,87.461,14.933,86.2,12.176,86.2,5.566,86.2.374,93.188.16,93.482a.763.763,0,0,0,0,.937,22.4,22.4,0,0,0,3.452,3.64c2.837,2.409,5.807,3.666,8.564,3.666,6.61,0,11.8-6.985,12.016-7.279A.8.8,0,0,0,24.192,93.482Z" transform="translate(0.001 -86.203)" fill="#fff"/>
  <path id="Path_18" data-name="Path 18" d="M148.49,153.307a4.817,4.817,0,1,0-4.817-4.817A4.831,4.831,0,0,0,148.49,153.307Z" transform="translate(-136.313 -140.729)" fill="#721eff" opacity="0.4"/>
</svg>
