<svg width="290" height="168" viewBox="0 0 290 168" fill="none" xmlns="http://www.w3.org/2000/svg">
<mask id="mask0_91_7073" style="mask-type:alpha" maskUnits="userSpaceOnUse" x="0" y="0" width="290" height="168">
<rect width="290" height="168" fill="white"/>
</mask>
<g mask="url(#mask0_91_7073)">
<path opacity="0.0344828" d="M351.191 298.486L223.446 249.829L223.009 249.663L222.839 250.094L175.308 370.01L148.994 240.355L148.91 239.941L148.485 239.987L15.2683 254.405L116.768 173.473L117.133 173.182L116.841 172.822L31.2393 67.3675L158.985 116.025L159.421 116.191L159.592 115.76L207.122 -4.15676L233.436 125.499L233.52 125.913L233.945 125.866L367.162 111.449L265.662 192.38L265.298 192.671L265.59 193.031L351.191 298.486Z" stroke="#E0CBCE" stroke-width="0.932679"/>
<path opacity="0.0689655" d="M343.268 304.61L219.527 250.344L219.1 250.157L218.905 250.577L165.501 366.12L146.396 237.292L146.334 236.875L145.905 236.899L13.3894 244.389L118.087 169.895L118.468 169.624L118.194 169.251L39.1635 61.2436L162.904 115.509L163.332 115.697L163.526 115.277L216.93 -0.266489L236.036 128.562L236.098 128.979L236.527 128.955L369.042 121.465L264.344 195.959L263.964 196.23L264.237 196.603L343.268 304.61Z" stroke="#E0CBCE" stroke-width="0.932679"/>
<path opacity="0.103448" d="M335.082 310.215L215.619 250.644L215.201 250.436L214.985 250.843L156.015 361.774L143.995 234.141L143.956 233.722L143.524 233.724L12.093 234.436L119.593 166.443L119.988 166.194L119.734 165.808L47.3487 55.6382L166.811 115.21L167.229 115.418L167.446 115.011L226.416 4.08014L238.435 131.712L238.475 132.132L238.907 132.129L370.338 131.417L262.838 199.41L262.443 199.66L262.696 200.046L335.082 310.215Z" stroke="#E0CBCE" stroke-width="0.932679"/>
<path opacity="0.137931" d="M326.667 315.295L211.736 250.732L211.329 250.503L211.09 250.897L146.873 356.994L141.798 230.915L141.781 230.494L141.347 230.474L11.3718 224.577L121.278 163.128L121.686 162.9L121.453 162.503L55.7637 50.558L170.695 115.121L171.102 115.35L171.34 114.957L235.557 8.85861L240.633 134.938L240.65 135.359L241.084 135.379L371.059 141.276L261.153 202.725L260.745 202.953L260.978 203.35L326.667 315.295Z" stroke="#E0CBCE" stroke-width="0.932679"/>
<path opacity="0.172414" d="M318.055 319.844L207.889 250.612L207.493 250.364L207.234 250.742L138.099 351.809L139.805 227.626L139.811 227.204L139.376 227.162L11.2144 214.843L123.131 159.957L123.551 159.752L123.339 159.345L64.375 46.0082L174.542 115.241L174.937 115.489L175.196 115.11L244.332 14.0439L242.625 138.227L242.619 138.648L243.055 138.69L371.216 151.01L259.299 205.895L258.88 206.101L259.091 206.508L318.055 319.844Z" stroke="#E0CBCE" stroke-width="0.932679"/>
<path opacity="0.206897" d="M309.281 323.861L204.09 250.29L203.707 250.023L203.429 250.385L129.713 346.243L138.02 224.286L138.049 223.865L137.613 223.801L11.6096 205.263L125.145 156.938L125.574 156.755L125.384 156.339L73.1509 41.9918L178.342 115.562L178.724 115.83L179.003 115.467L252.719 19.6097L244.411 141.567L244.383 141.988L244.818 142.052L370.822 160.59L257.287 208.915L256.857 209.098L257.047 209.513L309.281 323.861Z" stroke="#E0CBCE" stroke-width="0.932679"/>
<path opacity="0.241379" d="M300.374 327.344L200.35 249.773L199.981 249.487L199.684 249.832L121.732 340.325L136.442 220.908L136.494 220.488L136.059 220.402L12.5416 195.865L127.306 154.076L127.744 153.917L127.576 153.493L82.0569 38.51L182.081 116.081L182.45 116.367L182.747 116.022L260.699 25.529L245.989 144.946L245.937 145.366L246.372 145.452L369.889 169.988L255.125 211.777L254.687 211.937L254.854 212.36L300.374 327.344Z" stroke="#E0CBCE" stroke-width="0.932679"/>
<path opacity="0.275862" d="M291.369 330.293L196.681 249.064L196.327 248.761L196.012 249.088L114.176 334.081L135.073 217.503L135.148 217.085L134.715 216.976L13.9958 186.676L129.606 151.378L130.051 151.242L129.906 150.812L91.0615 35.5608L185.75 116.79L186.104 117.093L186.419 116.766L268.255 31.7727L247.358 148.351L247.283 148.768L247.716 148.877L368.435 179.177L252.825 214.475L252.38 214.611L252.525 215.041L291.369 330.293Z" stroke="#E0CBCE" stroke-width="0.932679"/>
<path opacity="0.310345" d="M282.299 332.711L193.092 248.172L192.755 247.852L192.424 248.16L107.059 327.54L133.912 214.083L134.01 213.668L133.58 213.538L15.9549 177.722L132.033 148.848L132.483 148.736L132.361 148.301L100.132 33.1424L189.339 117.682L189.676 118.001L190.007 117.693L275.372 38.3129L248.519 151.77L248.421 152.185L248.851 152.316L366.476 188.131L250.398 217.005L249.948 217.117L250.07 217.552L282.299 332.711Z" stroke="#E0CBCE" stroke-width="0.932679"/>
<path opacity="0.344828" d="M273.194 334.603L189.596 247.103L189.275 246.768L188.929 247.057L100.394 320.733L132.958 210.661L133.079 210.251L132.653 210.097L18.4003 169.028L134.575 146.492L135.03 146.404L134.932 145.965L109.237 31.2505L192.835 118.75L193.156 119.086L193.502 118.797L282.037 45.1211L249.473 155.193L249.352 155.603L249.778 155.756L364.031 196.826L247.856 219.361L247.401 219.45L247.499 219.889L273.194 334.603Z" stroke="#E0CBCE" stroke-width="0.932679"/>
<path opacity="0.37931" d="M264.087 335.975L186.2 245.866L185.897 245.516L185.536 245.784L94.1937 313.686L132.208 207.247L132.353 206.842L131.932 206.667L21.3118 160.616L137.222 144.313L137.68 144.248L137.605 143.806L118.344 29.8778L196.231 119.987L196.534 120.337L196.895 120.068L288.237 52.1666L250.222 158.606L250.078 159.011L250.499 159.186L361.119 205.237L245.209 221.54L244.751 221.605L244.826 222.047L264.087 335.975Z" stroke="#E0CBCE" stroke-width="0.932679"/>
<path opacity="0.413793" d="M255.008 336.836L182.913 244.47L182.63 244.106L182.256 244.353L88.4672 306.433L131.662 203.853L131.83 203.455L131.415 203.258L24.6685 152.508L139.963 142.314L140.422 142.273L140.371 141.829L127.423 29.0179L199.518 121.384L199.801 121.747L200.175 121.5L293.964 59.4212L250.769 162.001L250.601 162.399L251.016 162.596L357.762 213.345L242.468 223.54L242.009 223.58L242.06 224.025L255.008 336.836Z" stroke="#E0CBCE" stroke-width="0.932679"/>
<path opacity="0.448276" d="M245.987 337.194L179.745 242.922L179.481 242.545L179.096 242.771L83.2223 299L131.315 200.49L131.506 200.1L131.099 199.881L28.4477 144.725L142.784 140.497L143.243 140.48L143.216 140.035L136.443 28.6604L202.685 122.932L202.95 123.309L203.335 123.083L299.208 66.8542L251.116 165.364L250.925 165.754L251.332 165.973L353.983 221.129L239.647 225.357L239.188 225.374L239.215 225.819L245.987 337.194Z" stroke="#E0CBCE" stroke-width="0.932679"/>
<path opacity="0.482759" d="M237.054 337.06L176.704 241.231L176.459 240.842L176.064 241.047L78.4652 291.418L131.164 197.168L131.377 196.786L130.979 196.546L32.626 137.285L145.675 138.864L146.133 138.87L146.13 138.426L145.376 28.7932L205.726 124.622L205.971 125.01L206.366 124.806L303.965 74.4349L251.266 168.684L251.053 169.066L251.451 169.306L349.804 228.568L236.755 226.989L236.297 226.982L236.3 227.426L237.054 337.06Z" stroke="#E0CBCE" stroke-width="0.932679"/>
<path opacity="0.517241" d="M228.238 336.448L173.796 239.407L173.573 239.009L173.168 239.191L74.2008 283.718L131.204 193.899L131.44 193.528L131.052 193.267L37.1798 130.205L148.625 137.417L149.08 137.446L149.101 137.004L154.192 29.4057L208.634 126.446L208.858 126.845L209.263 126.663L308.23 82.1354L251.226 171.954L250.99 172.326L251.379 172.587L345.251 235.649L233.806 228.437L233.351 228.407L233.33 228.849L228.238 336.448Z" stroke="#E0CBCE" stroke-width="0.932679"/>
<path opacity="0.551724" d="M219.565 335.371L171.028 237.46L170.826 237.052L170.413 237.212L70.4297 275.929L131.431 190.692L131.689 190.331L131.311 190.05L42.0821 123.5L151.619 136.154L152.071 136.207L152.116 135.768L162.864 30.4821L211.401 128.393L211.604 128.801L212.016 128.642L312 89.9246L250.999 175.162L250.741 175.522L251.118 175.804L340.347 242.353L230.81 229.699L230.358 229.647L230.313 230.086L219.565 335.371Z" stroke="#E0CBCE" stroke-width="0.932679"/>
<path opacity="0.586207" d="M211.064 333.846L168.407 235.4L168.227 234.983L167.808 235.12L67.1543 268.08L131.839 187.556L132.118 187.208L131.753 186.906L47.3089 117.185L154.65 135.077L155.097 135.152L155.166 134.717L171.367 32.0075L214.023 130.453L214.203 130.87L214.622 130.733L315.276 97.7733L250.591 178.298L250.312 178.646L250.677 178.947L335.121 248.669L227.78 230.776L227.333 230.702L227.264 231.136L211.064 333.846Z" stroke="#E0CBCE" stroke-width="0.932679"/>
<path opacity="0.62069" d="M202.758 331.889L165.938 233.236L165.78 232.812L165.355 232.927L64.3723 260.201L132.422 184.5L132.722 184.166L132.371 183.845L52.8324 111.27L157.704 134.184L158.145 134.281L158.237 133.851L179.673 33.9652L216.492 132.618L216.651 133.042L217.075 132.927L318.058 105.653L250.009 181.354L249.708 181.688L250.06 182.009L329.598 254.584L224.727 231.67L224.285 231.573L224.193 232.003L202.758 331.889Z" stroke="#E0CBCE" stroke-width="0.932679"/>
<path opacity="0.655172" d="M194.671 329.518L163.625 230.98L163.49 230.55L163.06 230.642L62.0802 252.32L133.173 181.534L133.494 181.214L133.157 180.875L58.6252 105.768L160.77 133.473L161.204 133.591L161.319 133.169L187.759 36.3366L218.805 134.875L218.941 135.305L219.37 135.212L320.35 113.535L249.258 184.321L248.937 184.64L249.273 184.979L323.805 260.087L221.661 232.381L221.227 232.263L221.111 232.686L194.671 329.518Z" stroke="#E0CBCE" stroke-width="0.932679"/>
<path opacity="0.689655" d="M186.826 326.755L161.471 228.644L161.359 228.209L160.926 228.278L60.2716 244.468L134.083 178.668L134.424 178.364L134.103 178.007L64.658 100.688L163.834 132.945L164.261 133.084L164.399 132.669L195.601 39.1056L220.956 137.217L221.068 137.652L221.501 137.582L322.155 121.393L248.344 187.193L248.003 187.497L248.324 187.854L317.769 265.173L218.593 232.916L218.166 232.777L218.028 233.192L186.826 326.755Z" stroke="#E0CBCE" stroke-width="0.932679"/>
<path opacity="0.724138" d="M179.246 323.615L159.482 226.233L159.393 225.794L158.958 225.841L58.9433 236.665L135.148 175.903L135.508 175.616L135.204 175.243L70.9061 96.0316L166.89 132.591L167.307 132.75L167.468 132.344L203.18 42.2455L222.944 139.628L223.033 140.067L223.468 140.02L323.483 129.195L247.278 189.958L246.918 190.245L247.221 190.618L311.52 269.829L215.536 233.27L215.118 233.111L214.958 233.517L179.246 323.615Z" stroke="#E0CBCE" stroke-width="0.932679"/>
<path opacity="0.758621" d="M171.951 320.122L157.66 223.76L157.595 223.318L157.158 223.343L58.0866 228.943L136.361 173.249L136.738 172.981L136.453 172.592L77.341 91.807L169.926 132.41L170.334 132.588L170.517 132.192L210.476 45.7379L224.767 142.1L224.832 142.542L225.269 142.517L324.341 136.917L246.067 192.611L245.69 192.879L245.974 193.268L305.086 274.053L212.501 233.45L212.093 233.271L211.91 233.667L171.951 320.122Z" stroke="#E0CBCE" stroke-width="0.932679"/>
<path opacity="0.793103" d="M164.958 316.299L156.006 221.237L155.964 220.794L155.527 220.797L57.689 221.327L137.709 170.715L138.102 170.466L137.837 170.062L83.9315 88.0189L172.929 132.399L173.326 132.597L173.531 132.212L217.467 49.5623L226.419 144.624L226.461 145.067L226.898 145.065L324.736 144.535L244.717 195.146L244.323 195.395L244.588 195.799L298.494 277.842L209.496 233.463L209.099 233.265L208.894 233.65L164.958 316.299Z" stroke="#E0CBCE" stroke-width="0.932679"/>
<path opacity="0.827586" d="M158.287 312.167L154.523 218.673L154.506 218.23L154.069 218.21L57.7432 213.84L139.188 168.304L139.597 168.075L139.352 167.658L90.6534 84.6668L175.893 132.551L176.279 132.768L176.505 132.395L224.14 53.6931L227.904 147.187L227.922 147.63L228.358 147.65L324.684 152.021L243.24 197.557L242.831 197.785L243.075 198.202L291.774 281.194L206.534 233.309L206.148 233.093L205.923 233.466L158.287 312.167Z" stroke="#E0CBCE" stroke-width="0.932679"/>
<path opacity="0.862069" d="M151.951 307.752L153.21 216.08L153.217 215.638L152.782 215.596L58.2329 206.508L140.786 166.023L141.209 165.815L140.986 165.386L97.475 81.7524L178.806 132.863L179.18 133.098L179.426 132.738L230.477 58.1086L229.217 149.781L229.211 150.223L229.646 150.265L324.195 159.353L241.642 199.838L241.219 200.046L241.442 200.475L284.953 284.108L203.622 232.997L203.248 232.762L203.002 233.122L151.951 307.752Z" stroke="#E0CBCE" stroke-width="0.932679"/>
<path opacity="0.896552" d="M145.963 303.078L152.067 213.468L152.097 213.028L151.665 212.965L59.1444 199.353L142.494 163.876L142.93 163.69L142.729 163.251L104.369 79.274L181.658 133.33L182.018 133.582L182.284 133.237L236.463 62.7842L230.359 152.394L230.329 152.834L230.761 152.897L323.282 166.509L239.933 201.986L239.497 202.171L239.697 202.611L278.058 286.588L200.769 232.532L200.408 232.28L200.142 232.625L145.963 303.078Z" stroke="#E0CBCE" stroke-width="0.932679"/>
<path opacity="0.931035" d="M140.338 298.167L151.094 210.846L151.148 210.41L150.719 210.324L60.4628 192.395L144.303 161.867L144.75 161.704L144.573 161.255L111.308 77.2268L184.44 133.943L184.788 134.212L185.073 133.881L242.088 67.6938L231.331 155.015L231.278 155.451L231.706 155.536L321.963 173.466L238.123 203.994L237.675 204.157L237.853 204.606L271.118 288.634L197.985 231.918L197.638 231.649L197.353 231.979L140.338 298.167Z" stroke="#E0CBCE" stroke-width="0.932679"/>
<path opacity="0.965517" d="M135.087 293.048L150.291 208.226L150.369 207.794L149.945 207.687L62.1732 185.657L146.205 160L146.663 159.861L146.509 159.404L118.266 75.6076L187.148 134.698L187.481 134.983L187.784 134.668L247.341 72.8138L232.136 157.636L232.059 158.068L232.483 158.174L320.254 180.204L236.222 205.861L235.765 206.001L235.919 206.457L264.162 290.254L195.28 231.164L194.947 230.878L194.644 231.193L135.087 293.048Z" stroke="#E0CBCE" stroke-width="0.932679"/>
<path d="M130.215 287.743L149.653 205.615L149.754 205.189L149.335 205.062L64.2539 179.156L148.187 158.278L148.653 158.162L148.524 157.699L125.214 74.4086L189.768 135.586L190.086 135.887L190.406 135.589L252.211 78.1171L232.773 160.245L232.672 160.671L233.091 160.798L318.172 186.704L234.238 207.582L233.772 207.698L233.902 208.161L257.212 291.452L192.658 230.274L192.34 229.973L192.019 230.271L130.215 287.743Z" stroke="#E0CBCE" stroke-width="0.932679"/>
</g>
</svg>
