<svg id="wifi" xmlns="http://www.w3.org/2000/svg" width="25.563" height="16.98" viewBox="0 0 25.563 16.98">
  <path id="Path_35" data-name="Path 35" d="M171.069,168.229a2.84,2.84,0,1,0,2.84,2.84A2.833,2.833,0,0,0,171.069,168.229Z" transform="translate(-158.288 -162.579)" fill="#fff"/>
  <g id="Group_22" data-name="Group 22" transform="translate(0 0)">
    <path id="Path_36" data-name="Path 36" d="M283.445,124.1a.9.9,0,0,0,0,1.3,5.516,5.516,0,0,1,0,7.78.9.9,0,0,0,0,1.3.9.9,0,0,0,1.3,0,7.3,7.3,0,0,0,0-10.373A.9.9,0,0,0,283.445,124.1Z" transform="translate(-266.434 -120.795)" fill="#fff"/>
    <path id="Path_37" data-name="Path 37" d="M89.784,125.395a.917.917,0,1,0-1.3-1.3,7.323,7.323,0,0,0,0,10.373.941.941,0,0,0,.648.278.926.926,0,0,0,.648-1.575A5.535,5.535,0,0,1,89.784,125.395Z" transform="translate(-81.232 -120.795)" fill="#fff"/>
    <path id="Path_38" data-name="Path 38" d="M350.048,72.9a.917.917,0,0,0-1.3,1.3,9.82,9.82,0,0,1,0,13.831.9.9,0,0,0,0,1.3.9.9,0,0,0,1.3,0,11.627,11.627,0,0,0,0-16.424Z" transform="translate(-327.881 -72.62)" fill="#fff" opacity="0.4"/>
    <path id="Path_39" data-name="Path 39" d="M4.693,72.9a.9.9,0,0,0-1.3,0,11.627,11.627,0,0,0,0,16.424.9.9,0,0,0,1.3,0,.9.9,0,0,0,0-1.3,9.82,9.82,0,0,1,0-13.831A.9.9,0,0,0,4.693,72.9Z" transform="translate(0 -72.62)" fill="#fff" opacity="0.4"/>
  </g>
</svg>
